<?xml version="1.0" encoding="UTF-8" standalone="no"?>
<svg
   xmlns:dc="http://purl.org/dc/elements/1.1/"
   xmlns:cc="http://creativecommons.org/ns#"
   xmlns:rdf="http://www.w3.org/1999/02/22-rdf-syntax-ns#"
   xmlns:svg="http://www.w3.org/2000/svg"
   xmlns="http://www.w3.org/2000/svg"
   id="svg8"
   version="1.1"
   viewBox="0 0 48.947916 6.3499998"
   height="24"
   width="185">
  <defs
     id="defs2">
    <path
       id="b"
       d="M 22.735,23.171 C 23.018,23.494 22.788,24 22.359,24 h -5.907 c -0.285,0 -0.556,-0.121 -0.745,-0.333 L 6.293,13.141 v 10.36 c 0,0.276 -0.224,0.5 -0.5,0.5 H 0.5 c -0.276,0 -0.5,-0.224 -0.5,-0.5 v -23 c 0,-0.276 0.224,-0.5 0.5,-0.5 h 5.293 c 0.276,0 0.5,0.224 0.5,0.5 v 9.815 l 9.141,-9.99 c 0.19,-0.207 0.457,-0.325 0.738,-0.325 h 5.762 c 0.437,0 0.664,0.521 0.366,0.841 l -9.851,10.563 10.287,11.767 z" />
    <path
       id="c"
       d="m 45.991,24 c -0.199,0 -0.38,-0.118 -0.459,-0.301 L 43.508,19.03 h -10.67 l -2.024,4.669 C 30.735,23.882 30.555,24 30.355,24 h -5.212 c -0.366,0 -0.608,-0.381 -0.453,-0.712 l 10.782,-23 C 35.554,0.112 35.731,0 35.925,0 h 4.358 c 0.194,0 0.37,0.112 0.453,0.287 l 10.815,23 C 51.707,23.619 51.465,24 51.099,24 Z M 34.856,14.332 h 6.635 l -3.317,-7.694 -3.317,7.694 z" />
    <path
       id="d"
       d="m 55.525,24 c -0.276,0 -0.5,-0.224 -0.5,-0.5 v -23 c 0,-0.276 0.224,-0.5 0.5,-0.5 h 5.293 c 0.276,0 0.5,0.224 0.5,0.5 v 18.428 h 9.759 c 0.276,0 0.5,0.224 0.5,0.5 V 23.5 c 0,0.276 -0.224,0.5 -0.5,0.5 z" />
    <path
       id="e"
       d="m 75.279,0.5 c 0,-0.276 0.224,-0.5 0.5,-0.5 h 9.315 c 2.667,0 4.959,0.477 6.874,1.43 1.938,0.953 3.42,2.338 4.446,4.153 1.026,1.793 1.539,3.926 1.539,6.4 0,2.496 -0.513,4.652 -1.539,6.468 -1.003,1.793 -2.474,3.166 -4.412,4.119 C 90.087,23.523 87.784,24 85.094,24 h -9.315 c -0.276,0 -0.5,-0.224 -0.5,-0.5 z m 9.37,18.462 c 2.371,0 4.138,-0.579 5.301,-1.736 1.163,-1.157 1.744,-2.905 1.744,-5.242 C 91.694,9.646 91.113,7.91 89.95,6.775 88.787,5.618 87.02,5.039 84.649,5.039 h -3.078 v 13.923 z" />
    <path
       id="f"
       d="m 102.913,24 c -0.276,0 -0.5,-0.224 -0.5,-0.5 v -23 c 0,-0.276 0.224,-0.5 0.5,-0.5 h 5.293 c 0.276,0 0.5,0.224 0.5,0.5 v 23 c 0,0.276 -0.224,0.5 -0.5,0.5 z" />
    <path
       id="path0_fill"
       d="m 190,95 c 0,52.467 -42.533,95 -95,95 C 42.5329,190 0,147.467 0,95 0,42.5329 42.5329,0 95,0 c 52.467,0 95,42.5329 95,95 z" />
    <path
       id="path1_stroke_2x"
       d="m 188,95 c 0,51.362 -41.638,93 -93,93 v 4 c 53.572,0 97,-43.428 97,-97 z M 95,188 C 43.6375,188 2,146.362 2,95 h -4 c 0,53.572 43.4284,97 97,97 z M 2,95 C 2,43.6375 43.6375,2 95,2 V -2 C 41.4284,-2 -2,41.4284 -2,95 Z M 95,2 c 51.362,0 93,41.6375 93,93 h 4 C 192,41.4284 148.572,-2 95,-2 Z" />
    <path
       id="path2_fill"
       d="M 0,3 C 0,1.34315 1.34315,0 3,0 h 84 c 1.6569,0 3,1.34315 3,3 v 84 c 0,1.6569 -1.3431,3 -3,3 H 3 C 1.34315,90 0,88.6569 0,87 Z" />
    <path
       id="path3_stroke_2x"
       d="M 3,2 H 87 V -2 H 3 Z m 85,1 v 84 h 4 V 3 Z M 87,88 H 3 v 4 H 87 Z M 2,87 V 3 H -2 V 87 Z M 3,-2 C 0.238576,-2 -2,0.238576 -2,3 H 2 C 2,2.44772 2.44772,2 3,2 Z m 84,4 c 0.5523,0 1,0.44772 1,1 h 4 c 0,-2.761424 -2.2386,-5 -5,-5 z m 1,85 c 0,0.5523 -0.4477,1 -1,1 v 4 c 2.7614,0 5,-2.2386 5,-5 z M 3,88 C 2.44772,88 2,87.5523 2,87 h -4 c 0,2.7614 2.238576,5 5,5 z" />
    <path
       id="path4_stroke"
       d="m -0.460815,18.6125 c -0.490151,0.2545 -0.681185,0.8582 -0.426681,1.3483 0.254501,0.4902 0.8581607,0.6812 1.348311,0.4267 z M 26,6 26.515,5.14281 C 26.2171,4.96383 25.8476,4.95235 25.5392,5.1125 Z m 16.8108,10.1 -0.515,0.8572 c 0.3312,0.199 0.7474,0.1894 1.0691,-0.0247 z M 67,0 67.6842,-0.729321 C 67.3455,-1.04707 66.8325,-1.0898 66.4459,-0.832465 Z m 20.3158,20.4293 c 0.4028,0.3779 1.0357,0.3577 1.4135,-0.0451 0.3779,-0.4028 0.3577,-1.0357 -0.0451,-1.4135 z M 0.460815,20.3875 26.4608,6.8875 25.5392,5.1125 -0.460815,18.6125 Z M 25.485,6.85719 42.2958,16.9572 43.3258,15.2428 26.515,5.14281 Z M 43.3649,16.9325 67.5541,0.832465 66.4459,-0.832465 42.2567,15.2675 Z m 22.9509,-16.203179 21,19.699979 1.3684,-1.4586 -21,-19.700021 z" />
    <path
       id="path5_stroke"
       d="M 14,7.5 C 14,11.0899 11.0899,14 7.5,14 v 2 C 12.1944,16 16,12.1944 16,7.5 Z M 7.5,14 C 3.91015,14 1,11.0899 1,7.5 H -1 C -1,12.1944 2.80558,16 7.5,16 Z M 1,7.5 C 1,3.91015 3.91015,1 7.5,1 V -1 C 2.80558,-1 -1,2.80558 -1,7.5 Z M 7.5,1 C 11.0899,1 14,3.91015 14,7.5 h 2 C 16,2.80558 12.1944,-1 7.5,-1 Z" />
  </defs>
  <metadata
     id="metadata5">
    <rdf:RDF>
      <cc:Work
         rdf:about="">
        <dc:format>image/svg+xml</dc:format>
        <dc:type
           rdf:resource="http://purl.org/dc/dcmitype/StillImage" />
        <dc:title></dc:title>
      </cc:Work>
    </rdf:RDF>
  </metadata>
  <g
     transform="translate(0,-290.65)"
     id="layer1">
    <text
       transform="scale(1.1042769,0.90556997)"
       id="text4487"
       y="327.97025"
       x="-0.64478314"
       style="font-style:normal;font-weight:normal;font-size:9.61301231px;line-height:1.25;font-family:sans-serif;letter-spacing:0px;word-spacing:0px;fill:#009fdc;fill-opacity:1;stroke:none;stroke-width:0.24032529"
       xml:space="preserve"><tspan
         style="font-style:normal;font-variant:normal;font-weight:normal;font-stretch:normal;font-family:Ouhod;-inkscape-font-specification:Ouhod;fill:#009fdc;fill-opacity:1;stroke-width:0.24032529"
         y="327.97025"
         x="-0.64478314"
         id="tspan4485">NETDAVA</tspan></text>
  </g>
</svg>
