<?xml version="1.0" encoding="UTF-8" standalone="no"?>
<!-- Generator: Adobe Illustrator 16.2.0, SVG Export Plug-In . SVG Version: 6.00 Build 0)  -->

<svg
   xmlns:dc="http://purl.org/dc/elements/1.1/"
   xmlns:cc="http://creativecommons.org/ns#"
   xmlns:rdf="http://www.w3.org/1999/02/22-rdf-syntax-ns#"
   xmlns:svg="http://www.w3.org/2000/svg"
   xmlns="http://www.w3.org/2000/svg"
   xmlns:sodipodi="http://sodipodi.sourceforge.net/DTD/sodipodi-0.dtd"
   xmlns:inkscape="http://www.inkscape.org/namespaces/inkscape"
   version="1.1"
   id="Layer_1"
   x="0px"
   y="0px"
   width="150"
   height="150"
   viewBox="0 0 150 150"
   enable-background="new 0 0 792 612"
   xml:space="preserve"
   sodipodi:docname="BPMN-logo.svg"
   inkscape:version="0.92.1 r15371"><metadata
     id="metadata29"><rdf:RDF><cc:Work
         rdf:about=""><dc:format>image/svg+xml</dc:format><dc:type
           rdf:resource="http://purl.org/dc/dcmitype/StillImage" /><dc:title></dc:title></cc:Work></rdf:RDF></metadata><defs
     id="defs27" /><sodipodi:namedview
     pagecolor="#ffffff"
     bordercolor="#666666"
     borderopacity="1"
     objecttolerance="10"
     gridtolerance="10"
     guidetolerance="10"
     inkscape:pageopacity="0"
     inkscape:pageshadow="2"
     inkscape:window-width="1360"
     inkscape:window-height="731"
     id="namedview25"
     showgrid="false"
     inkscape:zoom="0.38562092"
     inkscape:cx="396"
     inkscape:cy="300.81356"
     inkscape:window-x="0"
     inkscape:window-y="0"
     inkscape:window-maximized="1"
     inkscape:current-layer="Layer_1" /><g
     id="g4517"
     transform="matrix(0.19557664,0,0,0.19557664,-2.0612865,109.49715)"><path
       style="fill:#7cc243"
       inkscape:connector-curvature="0"
       id="path2"
       d="M 177.667,-26.333 212.333,-49 c -62,-0.667 -151.4,-10.665 -152.667,-48.667 -0.667,-20 23.333,-42 23.333,-42 0,-12.666 1.333,-62 1.333,-62 -51.333,38 -69.22,79.33 -68.667,102 0.667,27.334 11.034,58.275 70,79.334 46.667,16.666 124,16 124,16 z" /><path
       style="fill:#7cc243"
       inkscape:connector-curvature="0"
       id="path4"
       d="M 565.666,-325 521,-301.667 c 0,0 -98.667,10 -141.333,24.667 -23.333,0 -149.333,0 -149.333,0 37.333,-21.333 219.333,-69.333 290,-69.333 C 531,-341 565.666,-325 565.666,-325 Z" /><rect
       style="fill:#294a9b"
       id="rect6"
       height="208.69501"
       width="614.492"
       y="-282.89801"
       x="81.057999" /><g
       transform="translate(0,-462)"
       id="g12"><path
         style="fill:#ffffff"
         inkscape:connector-curvature="0"
         id="path8"
         d="m 174.826,355.403 h -69.424 v -7.125 h 17.125 V 216.403 h -17.125 v -7.125 h 71.57 c 16.574,0 28.436,3.473 35.584,10.414 7.146,6.941 10.721,14.92 10.721,23.934 0,7.561 -2.75,14.666 -8.248,21.316 -5.5,6.652 -15.088,10.994 -28.768,13.029 v 0.436 c 27.926,3.922 41.891,16.119 41.891,36.592 0,12.199 -4.494,21.982 -13.482,29.352 -8.988,7.37 -22.27,11.052 -39.844,11.052 z m -19.299,-139 v 58.5 h 7.76 c 9.941,0 16.592,-1.488 19.951,-4.467 3.359,-2.977 5.039,-11.328 5.039,-25.055 0,-11.475 -1.361,-19.174 -4.082,-23.096 -2.721,-3.922 -8.717,-5.883 -17.986,-5.883 h -10.682 z m 10.057,65.625 h -10.057 v 66.25 h 7.742 c 12.066,0 19.793,-2.105 23.18,-6.32 3.385,-4.213 5.078,-13.982 5.078,-29.311 0,-12.203 -1.996,-20.357 -5.984,-24.463 -3.988,-4.103 -10.643,-6.156 -19.959,-6.156 z" /><path
         style="fill:#ffffff"
         inkscape:connector-curvature="0"
         id="path10"
         d="m 286.958,287.028 v 61.25 h 19.375 v 7.125 h -69.125 v -7.125 h 16.75 V 216.403 h -16.75 v -7.125 h 63.998 c 18.984,0 32.5,3.848 40.551,11.543 8.051,7.695 12.076,16.697 12.076,27.006 0,10.453 -4.467,19.602 -13.396,27.441 -8.929,7.839 -24.742,11.76 -47.436,11.76 z m 0,-70.625 v 63.5 h 6.859 c 5.984,0 10.607,-0.525 13.869,-1.576 3.262,-1.051 5.934,-3.877 8.02,-8.48 2.084,-4.604 3.127,-11.943 3.127,-22.02 0,-9.857 -1.025,-17.051 -3.076,-21.582 -2.051,-4.531 -4.674,-7.303 -7.869,-8.318 -3.195,-1.015 -7.75,-1.523 -13.668,-1.523 h -7.262 z" /></g><g
       transform="translate(0,-462)"
       id="g18"><path
         style="fill:#ffffff"
         inkscape:connector-curvature="0"
         id="path14"
         d="m 417.678,209.998 27.004,84.625 27.268,-84.625 h 57.045 v 7.125 H 510.37 v 131.875 h 18.625 v 7.125 h -73 v -7.125 h 19 V 224.873 l -41.881,131.25 h -5.092 L 385.62,223.248 v 110.809 c 0,6.107 0.756,10.125 2.268,12.051 1.512,1.928 5.689,2.891 12.531,2.891 h 5.076 v 7.125 H 357.12 v -7.125 h 8.877 c 5.629,0 9.057,-0.943 10.283,-2.834 1.227,-1.889 1.84,-5.703 1.84,-11.443 V 217.123 h -21 v -7.125 z" /><path
         style="fill:#ffffff"
         inkscape:connector-curvature="0"
         id="path16"
         d="m 590.894,209.998 57.627,86 v -62.947 c 0,-6.617 -0.648,-10.928 -1.943,-12.928 -1.297,-2 -4.715,-3 -10.256,-3 h -6.801 v -7.125 h 43.875 v 7.125 h -5.072 c -5.469,0 -8.885,0.836 -10.252,2.506 -1.367,1.672 -2.051,5.014 -2.051,10.025 v 128.469 h -7.525 l -86.1,-128.5 v 105.529 c 0,5.887 0.609,9.666 1.832,11.338 1.223,1.672 4.6,2.508 10.135,2.508 h 8.408 v 7.125 h -45.75 v -7.125 h 5.707 c 5.814,0 9.297,-0.98 10.445,-2.941 1.148,-1.961 1.723,-7.156 1.723,-15.586 V 229.656 c 0,-5.521 -0.521,-8.99 -1.561,-10.408 -1.039,-1.416 -4.068,-2.125 -9.088,-2.125 h -7.852 v -7.125 z" /></g><path
       style="fill:#7cc243"
       inkscape:connector-curvature="0"
       id="path20"
       d="M 597.878,-325.833 549.209,-348.36 C 666.312,-349.848 758,-332 771,-267 c 13,65 -66,129 -205,188 -139,59 -294,72 -330,74 -6,-4 -32,-21 -32,-21 l 37.613,-24.29 c 116.936,-11.291 214.516,-29.033 306.452,-69.355 91.936,-40.322 181.452,-91.935 179.839,-137.903 -1.613,-45.968 -121.774,-50 -170.968,-45.968 17.742,-8.871 40.942,-22.317 40.942,-22.317 z" /><text
       y="-78.533203"
       x="708.94141"
       style="font-size:32px;font-family:Myriad-Roman"
       id="text22"
       font-size="32">TM</text>
</g></svg>