<?xml version="1.0" encoding="UTF-8" standalone="no"?>
<svg
   xmlns:dc="http://purl.org/dc/elements/1.1/"
   xmlns:cc="http://creativecommons.org/ns#"
   xmlns:rdf="http://www.w3.org/1999/02/22-rdf-syntax-ns#"
   xmlns:svg="http://www.w3.org/2000/svg"
   xmlns="http://www.w3.org/2000/svg"
   xmlns:sodipodi="http://sodipodi.sourceforge.net/DTD/sodipodi-0.dtd"
   xmlns:inkscape="http://www.inkscape.org/namespaces/inkscape"
   width="150"
   height="150"
   viewBox="0 0 150 150"
   version="1.1"
   preserveAspectRatio="xMidYMid"
   id="svg10"
   sodipodi:docname="javascript-logo.svg"
   inkscape:version="0.92.1 r15371">
  <metadata
     id="metadata16">
    <rdf:RDF>
      <cc:Work
         rdf:about="">
        <dc:format>image/svg+xml</dc:format>
        <dc:type
           rdf:resource="http://purl.org/dc/dcmitype/StillImage" />
        <dc:title></dc:title>
      </cc:Work>
    </rdf:RDF>
  </metadata>
  <defs
     id="defs14" />
  <sodipodi:namedview
     pagecolor="#ffffff"
     bordercolor="#666666"
     borderopacity="1"
     objecttolerance="10"
     gridtolerance="10"
     guidetolerance="10"
     inkscape:pageopacity="0"
     inkscape:pageshadow="2"
     inkscape:window-width="1360"
     inkscape:window-height="704"
     id="namedview12"
     showgrid="false"
     inkscape:zoom="1.84375"
     inkscape:cx="35.111443"
     inkscape:cy="64.082099"
     inkscape:window-x="0"
     inkscape:window-y="27"
     inkscape:window-maximized="1"
     inkscape:current-layer="svg10" />
  <g
     id="g8"
     transform="scale(0.5859375)">
    <path
       d="M 0,0 H 256 V 256 H 0 Z"
       id="path2"
       inkscape:connector-curvature="0"
       style="fill:#f7df1e" />
    <path
       d="m 67.311746,213.93229 19.590908,-11.85605 c 3.779454,6.70111 7.217575,12.3709 15.464436,12.3709 7.90511,0 12.88899,-3.09232 12.88899,-15.12026 v -81.79809 h 24.05749 V 199.667 c 0,24.91733 -14.60581,36.25894 -35.91517,36.25894 -19.245105,0 -30.416457,-9.96734 -36.08706,-21.99568"
       id="path4"
       inkscape:connector-curvature="0"
       style="fill:#000000" />
    <path
       d="m 152.38095,211.35441 19.58847,-11.34161 c 5.15657,8.42118 11.85849,14.60703 23.71495,14.60703 9.96815,0 16.32467,-4.98387 16.32467,-11.85767 0,-8.24848 -6.52962,-11.17014 -17.52787,-15.98009 l -6.01275,-2.57951 c -17.35721,-7.38783 -28.87111,-16.66722 -28.87111,-36.25772 0,-18.04353 13.7472,-31.79154 35.22844,-31.79154 15.29417,0 26.29201,5.32764 34.19591,19.24713 l -18.73107,12.02834 c -4.12444,-7.38864 -8.59103,-10.30948 -15.46443,-10.30948 -7.04569,0 -11.51391,4.46781 -11.51391,10.30948 0,7.21758 4.46822,10.13964 14.77771,14.60785 l 6.01396,2.57747 c 20.44953,8.76455 31.96343,17.69936 31.96343,37.8043 0,21.65353 -17.01221,33.50958 -39.86692,33.50958 -22.33945,0 -36.7746,-10.65366 -43.81907,-24.57356"
       id="path6"
       inkscape:connector-curvature="0"
       style="fill:#000000" />
  </g>
</svg>
