<?xml version="1.0" encoding="UTF-8" standalone="no"?>
<svg
   xmlns:dc="http://purl.org/dc/elements/1.1/"
   xmlns:cc="http://creativecommons.org/ns#"
   xmlns:rdf="http://www.w3.org/1999/02/22-rdf-syntax-ns#"
   xmlns:svg="http://www.w3.org/2000/svg"
   xmlns="http://www.w3.org/2000/svg"
   xmlns:sodipodi="http://sodipodi.sourceforge.net/DTD/sodipodi-0.dtd"
   xmlns:inkscape="http://www.inkscape.org/namespaces/inkscape"
   width="150"
   height="150"
   viewBox="0 0 150 150"
   version="1.1"
   preserveAspectRatio="xMidYMid"
   id="svg12"
   sodipodi:docname="git-logo.svg"
   inkscape:version="0.92.1 r15371">
  <metadata
     id="metadata18">
    <rdf:RDF>
      <cc:Work
         rdf:about="">
        <dc:format>image/svg+xml</dc:format>
        <dc:type
           rdf:resource="http://purl.org/dc/dcmitype/StillImage" />
        <dc:title></dc:title>
      </cc:Work>
    </rdf:RDF>
  </metadata>
  <defs
     id="defs16" />
  <sodipodi:namedview
     pagecolor="#ffffff"
     bordercolor="#666666"
     borderopacity="1"
     objecttolerance="10"
     gridtolerance="10"
     guidetolerance="10"
     inkscape:pageopacity="0"
     inkscape:pageshadow="2"
     inkscape:window-width="1360"
     inkscape:window-height="704"
     id="namedview14"
     showgrid="false"
     inkscape:zoom="1.578125"
     inkscape:cx="140.35644"
     inkscape:cy="53.366337"
     inkscape:window-x="0"
     inkscape:window-y="27"
     inkscape:window-maximized="1"
     inkscape:current-layer="svg12" />
  <g
     id="g10"
     transform="matrix(0.58762053,0,0,0.58762053,-1.7134412e-4,43.131326)">
    <path
       d="m 152.98396,37.213516 c -5.59693,0 -9.7654,2.748201 -9.7654,9.362119 0,4.983233 2.74703,8.443324 9.46381,8.443324 5.69279,0 9.55968,-3.354886 9.55968,-8.649059 0,-6.00022 -3.4601,-9.156384 -9.25809,-9.156384 z m -11.19035,46.701881 c -1.32442,1.62484 -2.64417,3.352548 -2.64417,5.390028 0,4.066776 5.18546,5.290666 12.30904,5.290666 5.90086,0 13.93856,-0.413808 13.93856,-5.899689 0,-3.26137 -3.86689,-3.462429 -8.7531,-3.768694 z M 171.90692,37.52095 c 1.82824,2.340237 3.76402,5.596931 3.76402,10.276237 0,11.292055 -8.85129,17.903635 -21.66648,17.903635 -3.25904,0 -6.20947,-0.405626 -8.03887,-0.914119 l -3.35839,5.391196 9.9688,0.609023 c 17.60205,1.122192 27.97531,1.631854 27.97531,15.156603 0,11.702356 -10.27274,18.311595 -27.97531,18.311595 -18.4133,0 -25.43284,-4.679303 -25.43284,-12.715832 0,-4.578777 2.03514,-7.014868 5.59576,-10.377936 -3.35839,-1.419105 -4.47591,-3.961571 -4.47591,-6.709772 0,-2.239708 1.11752,-4.273681 2.9516,-6.208292 1.83058,-1.929936 3.86455,-3.865717 6.30649,-6.103087 -4.98441,-2.441936 -8.74959,-7.732603 -8.74959,-15.261808 0,-11.697681 7.7326,-19.731873 23.29483,-19.731873 4.37538,0 7.02188,0.402119 9.36212,1.016987 h 19.83941 v 8.644383 z"
       id="path2"
       inkscape:connector-curvature="0"
       style="fill:#2f2707" />
    <path
       d="m 199.16566,19.034009 c -5.80033,0 -9.15638,-3.359562 -9.15638,-9.1610592 0,-5.7933151 3.35605,-8.94947948 9.15638,-8.94947948 5.90086,0 9.25808,3.15616438 9.25808,8.94947948 0,5.8014972 -3.35722,9.1610592 -9.25808,9.1610592 z m -13.12614,61.137242 v -8.033023 l 5.19014,-0.709552 c 1.42495,-0.205735 1.62718,-0.509662 1.62718,-2.038649 V 39.48011 c 0,-1.116347 -0.30393,-1.831745 -1.32442,-2.134503 l -5.4929,-1.934612 1.11869,-8.237589 h 21.06097 v 42.216621 c 0,1.630685 0.0982,1.832914 1.62834,2.038649 l 5.18897,0.709552 v 8.033023 z"
       id="path4"
       inkscape:connector-curvature="0"
       style="fill:#2f2707" />
    <path
       d="m 255.26707,76.227215 c -4.37655,2.134502 -10.78473,4.067945 -16.58623,4.067945 -12.10564,0 -16.68208,-4.878028 -16.68208,-16.379324 V 37.262612 c 0,-0.609023 0,-1.016986 -0.8171,-1.016986 h -7.12007 v -9.054685 c 8.95532,-1.019325 12.51361,-5.496402 13.63229,-16.58506 h 9.66605 v 14.450557 c 0,0.709553 0,1.016987 0.81475,1.016987 h 14.34302 v 10.172201 h -15.15777 v 24.312986 c 0,6.002557 1.42612,8.340456 6.91667,8.340456 2.85224,0 5.79916,-0.710721 8.2411,-1.626009 l 2.74937,8.954156"
       id="path6"
       inkscape:connector-curvature="0"
       style="fill:#2f2707" />
    <path
       d="M 104.52866,49.529571 58.012639,3.0170594 c -2.676895,-2.67923292 -7.021881,-2.67923292 -9.702283,0 l -9.659032,9.6590316 12.252932,12.252932 c 2.847561,-0.962046 6.112438,-0.316786 8.382538,1.953315 2.280622,2.284128 2.921206,5.577059 1.935781,8.433972 l 11.808731,11.808731 c 2.856913,-0.984256 6.153351,-0.347178 8.435141,1.938119 3.188896,3.187726 3.188896,8.354484 0,11.544548 -3.190063,3.190064 -8.356821,3.190064 -11.548054,0 C 67.519708,58.206685 66.92705,54.68347 68.141589,51.728365 L 57.128913,40.71569 l -0.0012,28.980602 c 0.777352,0.385754 1.511452,0.898923 2.15905,1.544183 3.188896,3.187726 3.188896,8.354484 0,11.546886 -3.190063,3.188895 -8.359159,3.188895 -11.544547,0 -3.188895,-3.192402 -3.188895,-8.35916 0,-11.546886 0.787872,-0.786703 1.699652,-1.381699 2.672219,-1.78148 v -29.25063 c -0.972567,-0.397443 -1.883178,-0.988931 -2.672219,-1.781479 -2.41622,-2.412713 -2.997188,-5.958137 -1.75927,-8.924932 L 33.905388,17.422027 2.0105936,49.314484 c -2.68040182,2.681571 -2.68040182,7.026557 0,9.70579 L 48.526612,105.53395 c 2.678064,2.67924 7.021881,2.67924 9.703452,0 L 104.52866,59.23653 c 2.67923,-2.680402 2.67923,-7.027726 0,-9.706959"
       id="path8"
       inkscape:connector-curvature="0"
       style="fill:#de4c36" />
  </g>
</svg>
