<?xml version="1.0" encoding="UTF-8" standalone="no"?>
<svg
   xmlns:dc="http://purl.org/dc/elements/1.1/"
   xmlns:cc="http://creativecommons.org/ns#"
   xmlns:rdf="http://www.w3.org/1999/02/22-rdf-syntax-ns#"
   xmlns:svg="http://www.w3.org/2000/svg"
   xmlns="http://www.w3.org/2000/svg"
   xmlns:sodipodi="http://sodipodi.sourceforge.net/DTD/sodipodi-0.dtd"
   xmlns:inkscape="http://www.inkscape.org/namespaces/inkscape"
   width="150"
   height="150"
   viewBox="0 0 150 150"
   version="1.1"
   preserveAspectRatio="xMidYMid"
   id="svg21"
   sodipodi:docname="sqlite-logo.svg"
   inkscape:version="0.92.1 r15371">
  <metadata
     id="metadata25">
    <rdf:RDF>
      <cc:Work
         rdf:about="">
        <dc:format>image/svg+xml</dc:format>
        <dc:type
           rdf:resource="http://purl.org/dc/dcmitype/StillImage" />
        <dc:title></dc:title>
      </cc:Work>
    </rdf:RDF>
  </metadata>
  <sodipodi:namedview
     pagecolor="#ffffff"
     bordercolor="#666666"
     borderopacity="1"
     objecttolerance="10"
     gridtolerance="10"
     guidetolerance="10"
     inkscape:pageopacity="0"
     inkscape:pageshadow="2"
     inkscape:window-width="1360"
     inkscape:window-height="704"
     id="namedview23"
     showgrid="false"
     inkscape:zoom="2.2318058"
     inkscape:cx="81.76876"
     inkscape:cy="84.719745"
     inkscape:window-x="0"
     inkscape:window-y="27"
     inkscape:window-maximized="1"
     inkscape:current-layer="svg21" />
  <defs
     id="defs9">
    <linearGradient
       x1="92.696587"
       y1="17.661398"
       x2="92.696571"
       y2="157.95518"
       id="linearGradient-1"
       gradientTransform="scale(0.97317604,1.0275633)"
       gradientUnits="userSpaceOnUse">
      <stop
         stop-color="#97D9F6"
         offset="0%"
         id="stop2" />
      <stop
         stop-color="#0F80CC"
         offset="92.024499%"
         id="stop4" />
      <stop
         stop-color="#0F80CC"
         offset="100%"
         id="stop6" />
    </linearGradient>
  </defs>
  <g
     id="g19"
     transform="matrix(0.28918732,0,0,0.28918732,0.99999983,42.157267)">
    <path
       d="m 194.51934,112.04421 c -6.82078,0 -12.36685,2.019 -16.61879,6.05525 -4.25193,4.03977 -6.40884,9.33499 -6.40884,15.82321 0,3.36248 0.53569,6.42828 1.59116,9.23756 1.05547,2.81494 2.6979,5.42268 4.90608,7.77901 2.20818,2.35845 6.62807,5.56217 13.21547,9.63536 8.08309,4.93453 13.37282,8.93931 15.9116,12.06628 2.54055,3.12433 3.80111,6.39859 3.80111,9.81216 0,4.57052 -1.50453,8.21887 -4.59669,10.96132 -3.09746,2.7437 -7.23978,4.1105 -12.37569,4.1105 -5.41702,0 -10.13569,-1.90956 -14.18784,-5.70166 -4.05216,-3.79757 -6.09768,-8.8205 -6.14365,-15.11602 h -2.51934 v 22.85083 h 2.51934 c 0.76906,-2.16381 1.83337,-3.27072 3.22652,-3.27072 0.67005,0 2.24,0.46215 4.68508,1.32597 5.94917,2.11677 10.83403,3.13812 14.67403,3.13812 6.61746,0 12.26608,-2.31761 16.97238,-7.02762 4.69923,-4.70789 7.07182,-10.38674 7.07182,-17.01658 0,-5.14086 -1.56641,-9.71475 -4.64088,-13.70164 -3.07448,-3.99169 -9.0537,-8.63471 -17.98895,-13.96685 -7.68884,-4.61952 -12.67978,-8.38188 -14.98343,-11.31492 -2.30718,-2.92881 -3.49171,-6.16857 -3.49171,-9.72376 0,-3.84531 1.4126,-6.93393 4.1989,-9.23757 2.78629,-2.30542 6.43712,-3.44752 11.00552,-3.44752 5.14122,0 9.42674,1.52575 12.81768,4.59669 3.3874,3.07624 5.3463,7.33914 5.92265,12.81769 h 2.51934 v -19.80112 h -2.34254 c -0.28641,1.00951 -0.5516,1.65481 -0.79558,1.94475 -0.23691,0.28818 -0.69304,0.44199 -1.37017,0.44199 -0.81503,0 -2.26829,-0.34298 -4.33149,-1.01657 -4.41989,-1.48862 -8.49503,-2.25414 -12.24309,-2.25414 z m 82.34254,0 c -8.31116,0 -15.8568,1.95889 -22.67404,5.87845 -6.82784,3.91248 -12.23248,9.34541 -16.22099,16.2652 C 233.98011,141.1071 232,148.45577 232,156.28731 c 0,10.52144 3.44398,19.89496 10.38674,28.11048 6.9463,8.21057 15.26983,13.32668 24.92818,15.29282 2.20817,1.15058 5.36751,4.12075 9.50276,8.92817 4.66033,5.42532 8.60287,9.33835 11.8453,11.66851 3.2389,2.3314 6.73591,4.04013 10.43094,5.17127 3.69857,1.12637 7.69768,1.67956 12.0221,1.67956 5.23669,0 9.92531,-0.91014 14.05525,-2.78453 l -0.92818,-2.29834 c -2.39734,0.86471 -4.95381,1.28177 -7.64641,1.28177 -3.65436,0 -7.34762,-1.20504 -11.04972,-3.62431 -3.69679,-2.42528 -8.32,-7.05255 -13.83425,-13.87846 -2.59183,-3.27071 -4.381,-5.33427 -5.39227,-6.14364 10.56707,-2.06356 19.25658,-7.18498 26.03315,-15.38122 6.77481,-8.19271 10.16575,-17.54287 10.16575,-28.02208 0,-12.44272 -4.42696,-22.89981 -13.21547,-31.42542 -8.79558,-8.5265 -19.61194,-12.81768 -32.44199,-12.81768 z m 51.40331,0 0.13253,2.69613 c 5.5337,0 8.63293,1.63005 9.32597,4.90608 0.25812,1.17215 0.37657,3.33648 0.39779,6.45304 l -0.0441,59.6243 c -0.046,4.45312 -0.68067,7.29635 -1.90055,8.53038 -1.22166,1.2252 -3.28663,1.99249 -6.27625,2.29835 l -0.13252,2.69613 h 55.16022 l 1.41436,-13.52486 h -2.51933 c -0.71956,3.68442 -2.36907,6.3238 -4.99448,7.8232 -2.63249,1.51036 -7.28751,2.25414 -14.01105,2.25414 h -5.21547 c -6.04994,0 -9.5505,-2.18714 -10.47514,-6.58563 -0.19094,-0.87019 -0.25635,-1.80315 -0.26519,-2.82873 l 0.22099,-60.28728 c -10e-4,-4.44606 0.56045,-7.42542 1.72376,-8.88398 1.17569,-1.45326 3.29547,-2.26652 6.36464,-2.47514 l -0.13253,-2.69613 h -28.77348 z m -50.51933,3.27071 c 9.3737,0 17.02718,3.69185 22.93922,11.13813 5.91028,7.44894 8.83978,17.65816 8.83978,30.58564 0,12.24997 -2.97193,22.0586 -8.92818,29.43645 -5.95624,7.37556 -13.88375,11.04972 -23.7348,11.04972 -9.46387,0 -17.13856,-3.78873 -23.02763,-11.40331 -5.88375,-7.61459 -8.79558,-17.50064 -8.79558,-29.65745 0,-12.49237 2.94719,-22.49247 8.88398,-29.96685 5.93326,-7.46644 13.87845,-11.18233 23.82321,-11.18233 z m 126.85082,12.81769 c -1.34541,0 -2.37082,0.45436 -3.13812,1.37017 -0.78497,0.91225 -1.02541,2.01722 -0.75138,3.35911 0.2652,1.30174 0.9989,2.44261 2.16575,3.40332 1.15978,0.9598 2.41149,1.45856 3.7569,1.45856 1.30122,0 2.29304,-0.49873 3.00553,-1.45856 0.71248,-0.96071 0.92994,-2.10158 0.66298,-3.40332 -0.27403,-1.34189 -0.98298,-2.44686 -2.07735,-3.35911 -1.10674,-0.91581 -2.32309,-1.37017 -3.62431,-1.37017 z m 36.3757,9.14917 c -2.28597,8.79415 -7.24155,13.55314 -14.85083,14.32044 l 0.0884,2.51934 h 8.88398 l -0.17679,29.79004 c 0.0141,5.09313 0.16972,8.48407 0.53038,10.20995 0.87514,4.13189 3.57304,6.23204 8.0884,6.23204 6.5326,0 13.38519,-3.97931 20.55249,-11.9337 l -2.16575,-1.85635 c -5.17481,5.23828 -9.75027,7.8674 -13.74585,7.8674 -2.45569,0 -3.97791,-1.41224 -4.55249,-4.1989 -0.15735,-0.67677 -0.22099,-1.46757 -0.22099,-2.38674 l 0.0884,-33.72374 h 13.56906 l -0.13252,-4.0221 H 443.536 v -12.81768 h -2.56353 z m 52.46408,11.22652 c -7.58983,0 -13.76353,3.68442 -18.56353,11.00553 -4.77525,7.33348 -6.25326,15.45845 -4.37569,24.39777 1.10497,5.23615 3.30607,9.29433 6.67403,12.1547 3.36265,2.85914 7.62873,4.28729 12.72928,4.28729 4.74873,0 11.36089,-1.20238 14.14365,-3.62431 2.78983,-2.42051 5.36044,-6.34184 7.73481,-11.71271 l -1.90056,-1.98895 c -3.78696,6.96752 -11.42983,10.47514 -17.19337,10.47514 -7.92398,0 -12.77701,-4.3474 -14.58563,-12.99447 -0.23514,-1.10374 -0.41017,-2.28951 -0.53039,-3.53591 9.42674,-1.49251 16.57105,-4.13544 21.39227,-7.95581 4.81768,-3.82247 9.6548,-7.87429 8.75138,-12.15468 -0.53746,-2.54356 -1.85812,-4.54347 -3.88951,-6.05525 -2.0579,-1.51106 -7.40066,-2.29834 -10.38674,-2.29834 z m -82.96132,0.30939 -16.35359,3.75691 v 2.91713 l 5.65746,-0.70719 c 2.74033,0 4.3527,1.24094 4.86187,3.71271 0.1715,0.82723 0.27934,1.98895 0.3094,3.44752 l -0.1768,26.74031 c -0.046,3.70033 -0.45613,5.8514 -1.28177,6.49724 -0.8327,0.64707 -3.02851,0.97238 -6.58563,0.97238 l -0.0884,2.51933 h 25.94475 l -0.0441,-2.51933 c -3.60486,0 -5.9421,-0.28446 -6.98342,-0.83978 -1.02365,-0.55178 -1.72906,-1.55597 -2.03315,-3.09393 -0.23514,-1.10833 -0.33768,-3.01807 -0.35359,-5.65745 l 0.0884,-37.74585 h -2.96132 z m 78.80663,4.95028 c 1.57878,0 3.10453,0.60976 4.64088,1.81215 1.51514,1.19815 2.43801,2.53047 2.74033,3.9779 1.47978,7.10914 -4.82298,12.02403 -19.00552,14.76242 -0.40486,-5.18381 0.49326,-9.88958 2.78453,-14.14363 2.27359,-4.25 5.23492,-6.40884 8.83978,-6.40884 z"
       id="path11"
       inkscape:connector-curvature="0"
       style="fill:#003b57" />
    <path
       d="M 157.88765,9.9517949 H 17.149878 C 7.7174807,9.9517949 0,17.67069 0,27.102734 V 182.31016 c 0,9.43151 7.7174807,17.14917 17.149878,17.14917 h 92.693572 c -1.0521,-46.12131 14.69772,-135.628485 48.0442,-189.5075351 z"
       id="path13"
       inkscape:connector-curvature="0"
       style="fill:#0f80cc" />
    <path
       d="M 152.77472,14.95511 H 17.149878 c -6.697546,0 -12.1478006,5.44884 -12.1478006,12.147624 V 170.98623 C 35.718188,159.1975 81.819347,149.02553 113.69541,149.48751 c 6.40556,-33.49343 25.23143,-99.133419 39.07931,-134.5324 z"
       id="path15"
       inkscape:connector-curvature="0"
       style="fill:url(#linearGradient-1)" />
    <path
       d="m 190.71505,4.8724579 c -9.6389,-8.5958011 -21.30917,-5.14298343 -32.8274,5.079337 -1.70962,1.5186741 -3.41569,3.2035361 -5.11293,5.0033151 -19.70387,20.902541 -37.99337,59.620773 -43.67558,89.18983 2.21348,4.48884 3.94254,10.21702 5.0811,14.59271 0.29172,1.12265 0.55514,2.17636 0.76553,3.07271 0.50033,2.12137 0.76906,3.49701 0.76906,3.49701 0,0 -0.1768,-0.66846 -0.90166,-2.77038 -0.1379,-0.4031 -0.29171,-0.84332 -0.47381,-1.36133 -0.0778,-0.21392 -0.18564,-0.47381 -0.30409,-0.75138 -1.2853,-2.98784 -4.84066,-9.29414 -6.4053,-12.03978 -1.33835,3.94785 -2.52111,7.64111 -3.51116,10.98254 4.51712,8.26484 7.26983,22.42864 7.26983,22.42864 0,0 -0.23867,-0.91792 -1.3737,-4.12162 -1.00774,-2.83351 -6.02696,-11.62768 -7.21591,-13.68363 -2.03386,7.50816 -2.841991,12.57724 -2.11324,13.81144 1.4149,2.39152 2.76243,6.51793 3.94572,11.08138 2.67315,10.28048 4.53128,22.79567 4.53128,22.79567 0,0 0.0601,0.82934 0.16088,2.10563 -0.37127,8.63328 -0.14851,17.58426 0.51978,25.67478 0.88574,10.70992 2.55293,19.9102 4.67801,24.83412 l 1.44265,-0.78655 c -3.12044,-9.70096 -4.38807,-22.41433 -3.83293,-37.07599 0.83978,-22.41078 5.99691,-49.43716 15.52619,-77.60619 16.09901,-42.52287 38.43536,-76.640881 58.87823,-92.934361 -18.63248,16.827403 -43.85061,71.296353 -51.39978,91.466961 -8.45259,22.5874 -14.44243,43.78361 -18.05259,64.09158 6.22851,-19.03858 26.36729,-27.22228 26.36729,-27.22228 0,0 9.87757,-12.18174 21.42055,-29.58532 -6.91447,1.57701 -18.26829,4.27668 -22.07116,5.87492 -5.60972,2.35314 -7.12132,3.1558 -7.12132,3.1558 0,0 18.17104,-11.06564 33.76088,-16.07603 21.44,-33.767952 44.79823,-81.739665 21.27558,-102.7235321"
       id="path17"
       inkscape:connector-curvature="0"
       style="fill:#003b57" />
  </g>
</svg>
