<?xml version="1.0" encoding="UTF-8" standalone="no"?>
<svg
   xmlns:dc="http://purl.org/dc/elements/1.1/"
   xmlns:cc="http://creativecommons.org/ns#"
   xmlns:rdf="http://www.w3.org/1999/02/22-rdf-syntax-ns#"
   xmlns:svg="http://www.w3.org/2000/svg"
   xmlns="http://www.w3.org/2000/svg"
   xmlns:sodipodi="http://sodipodi.sourceforge.net/DTD/sodipodi-0.dtd"
   xmlns:inkscape="http://www.inkscape.org/namespaces/inkscape"
   viewBox="0 0 150 150"
   version="1.1"
   id="svg12"
   sodipodi:docname="terraform-logo.svg"
   width="150"
   height="150"
   inkscape:version="0.92.1 r15371">
  <metadata
     id="metadata18">
    <rdf:RDF>
      <cc:Work
         rdf:about="">
        <dc:format>image/svg+xml</dc:format>
        <dc:type
           rdf:resource="http://purl.org/dc/dcmitype/StillImage" />
        <dc:title></dc:title>
      </cc:Work>
    </rdf:RDF>
  </metadata>
  <defs
     id="defs16" />
  <sodipodi:namedview
     pagecolor="#ffffff"
     bordercolor="#666666"
     borderopacity="1"
     objecttolerance="10"
     gridtolerance="10"
     guidetolerance="10"
     inkscape:pageopacity="0"
     inkscape:pageshadow="2"
     inkscape:window-width="1360"
     inkscape:window-height="704"
     id="namedview14"
     showgrid="false"
     inkscape:zoom="1.1426846"
     inkscape:cx="210.04422"
     inkscape:cy="130.11565"
     inkscape:window-x="0"
     inkscape:window-y="27"
     inkscape:window-maximized="1"
     inkscape:current-layer="svg12" />
  <g
     id="g4500"
     transform="matrix(0.59992801,0,0,0.59992801,-1.7014999e-7,3.053634)">
    <path
       style="fill:#000000"
       inkscape:connector-curvature="0"
       id="path2"
       d="m 77.35,97.709998 v -3.23 h -3 v 3.23 h -1.46 v -7.75 h 1.51 v 3.25 h 3 v -3.25 h 1.51 v 7.75 z m 7,0 h -1.2 l -0.11,-0.38 a 3.28,3.28 0 0 1 -1.7,0.52 c -1.06,0 -1.52,-0.7 -1.52,-1.66 0,-1.14 0.51,-1.57 1.7,-1.57 h 1.4 v -0.62 c 0,-0.62 -0.18,-0.84 -1.11,-0.84 a 8.46,8.46 0 0 0 -1.61,0.17 l -0.2,-1.06 a 7.89,7.89 0 0 1 2,-0.26 c 1.83,0 2.37,0.62 2.37,2 z m -1.43,-2.11 h -1.08 c -0.48,0 -0.61,0.13 -0.61,0.55 0,0.42 0.13,0.56 0.59,0.56 a 2.37,2.37 0 0 0 1.1,-0.29 z m 4.51,2.25 a 7.12,7.12 0 0 1 -2,-0.32 l 0.2,-1.07 a 6.77,6.77 0 0 0 1.73,0.24 c 0.65,0 0.74,-0.14 0.74,-0.56 0,-0.42 -0.07,-0.52 -1,-0.73 -1.42,-0.33 -1.59,-0.68 -1.59,-1.76 0,-1.08 0.49,-1.65 2.16,-1.65 a 8,8 0 0 1 1.75,0.2 l -0.14,1.11 a 10.66,10.66 0 0 0 -1.6,-0.16 c -0.63,0 -0.74,0.14 -0.74,0.48 0,0.34 0,0.48 0.82,0.68 1.63,0.41 1.78,0.62 1.78,1.77 0,1.15 -0.35,1.77 -2.11,1.77 z m 6.68,-0.11 v -3.89 c 0,-0.3 -0.13,-0.45 -0.47,-0.45 a 4.14,4.14 0 0 0 -1.52,0.45 v 3.86 h -1.46 v -7.86 l 1.46,0.22 v 2.47 a 5.31,5.31 0 0 1 2.13,-0.54 c 1,0 1.32,0.65 1.32,1.65 v 4.06 z m 2.68,-6.38 v -1.4 h 1.46 v 1.37 z m 0,6.38 v -5.62 h 1.46 v 5.59 z m 2.62,-5.54 c 0,-1.4 0.85,-2.22 2.83,-2.22 a 9.37,9.37 0 0 1 2.16,0.25 l -0.17,1.25 a 12.21,12.21 0 0 0 -1.95,-0.2 c -1,0 -1.37,0.34 -1.37,1.16 v 2.91 c 0,0.81 0.33,1.16 1.37,1.16 a 12.21,12.21 0 0 0 1.95,-0.2 l 0.17,1.25 a 9.37,9.37 0 0 1 -2.16,0.25 c -2,0 -2.83,-0.81 -2.83,-2.22 z m 8.22,5.65 c -2,0 -2.53,-1.06 -2.53,-2.2 v -1.44 c 0,-1.15 0.54,-2.2 2.53,-2.2 1.99,0 2.53,1.06 2.53,2.2 v 1.41 c 0.01,1.15 -0.53,2.23 -2.53,2.23 z m 0,-4.63 c -0.78,0 -1.08,0.33 -1.08,1 v 1.5 c 0,0.63 0.3,1 1.08,1 0.78,0 1.08,-0.33 1.08,-1 v -1.56 c 0,-0.63 -0.3,-0.96 -1.08,-0.96 z m 6.64,0.09 a 11.57,11.57 0 0 0 -1.54,0.81 v 3.6 h -1.46 v -5.6 h 1.23 l 0.1,0.62 a 6.63,6.63 0 0 1 1.53,-0.73 z m 5.83,2.54 a 1.73,1.73 0 0 1 -1.92,2 8.36,8.36 0 0 1 -1.55,-0.16 v 2.26 L 115.17,100.17 v -8.000002 h 1.16 l 0.14,0.47 a 3.15,3.15 0 0 1 1.84,-0.59 c 1.17,0 1.79,0.67 1.79,1.94 z m -3.48,0.63 a 6.72,6.72 0 0 0 1.29,0.15 c 0.53,0 0.73,-0.24 0.73,-0.75 v -2 c 0,-0.46 -0.18,-0.71 -0.72,-0.71 a 2.11,2.11 0 0 0 -1.3,0.51 z M 81.78,109.39 h -8.89 v -5.31 H 96.7 v 5.31 h -8.9 v 26.53 h -6 z"
       class="text" />
    <path
       style="fill:#000000"
       inkscape:connector-curvature="0"
       id="path4"
       d="m 102.19,131.62 a 24.39,24.39 0 0 0 7.12,-1.1 l 0.91,4.4 a 25,25 0 0 1 -8.56,1.48 c -7.31,0 -9.85,-3.39 -9.85,-9 v -6.15 c 0,-4.92 2.2,-9.08 9.66,-9.08 7.46,0 9.13,4.35 9.13,9.37 v 5 h -13 v 1.2 c 0.05,2.78 1.05,3.88 4.59,3.88 z m -4.54,-9.77 h 7.41 v -1.18 c 0,-2.2 -0.67,-3.73 -3.54,-3.73 -2.87,0 -3.87,1.53 -3.87,3.73 z m 28.54,-4.33 a 45.65,45.65 0 0 0 -6.19,3.39 v 15 h -5.83 v -23.27 h 4.92 l 0.38,2.58 a 26.09,26.09 0 0 1 6.12,-3.06 z m 14.24,0 a 45.65,45.65 0 0 0 -6.17,3.39 v 15 h -5.83 v -23.27 h 4.92 l 0.38,2.58 a 26.09,26.09 0 0 1 6.12,-3.06 z m 19.51,18.4 h -4.78 l -0.43,-1.58 a 12.73,12.73 0 0 1 -6.93,2.06 c -4.25,0 -6.07,-2.92 -6.07,-6.93 0,-4.73 2.06,-6.55 6.79,-6.55 h 5.59 v -2.44 c 0,-2.58 -0.72,-3.49 -4.45,-3.49 a 32.53,32.53 0 0 0 -6.45,0.72 l -0.72,-4.45 a 30.38,30.38 0 0 1 8,-1.1 c 7.31,0 9.47,2.58 9.47,8.41 z m -5.83,-8.8 h -4.3 c -1.91,0 -2.44,0.53 -2.44,2.29 0,1.76 0.53,2.34 2.34,2.34 a 9.18,9.18 0 0 0 4.4,-1.2 z m 23.75,-19.79 a 17.11,17.11 0 0 0 -3.35,-0.38 c -2.29,0 -2.63,1 -2.63,2.77 v 2.92 h 5.93 l -0.33,4.64 h -5.59 v 18.64 h -5.83 v -18.64 h -3.73 v -4.64 h 3.73 v -3.25 c 0,-4.83 2.25,-7.22 7.41,-7.22 a 18.47,18.47 0 0 1 5,0.67 z m 11.38,29.07 c -8,0 -10.13,-4.4 -10.13,-9.18 v -5.88 c 0,-4.78 2.15,-9.18 10.13,-9.18 7.98,0 10.13,4.4 10.13,9.18 v 5.88 c 0.01,4.78 -2.15,9.18 -10.13,9.18 z m 0,-19.27 c -3.11,0 -4.3,1.39 -4.3,4 v 6.26 c 0,2.63 1.2,4 4.3,4 3.1,0 4.3,-1.39 4.3,-4 v -6.24 c 0,-2.63 -1.19,-4.02 -4.3,-4.02 z m 25.14,0.39 a 45.65,45.65 0 0 0 -6.17,3.39 v 15 h -5.83 v -23.27 h 4.92 l 0.38,2.58 a 26.08,26.08 0 0 1 6.12,-3.06 z m 16.02,18.4 v -16.25 c 0,-1.24 -0.53,-1.86 -1.86,-1.86 a 16.08,16.08 0 0 0 -6.07,2 v 16.11 h -5.83 v -23.28 h 4.45 l 0.57,2 a 23.32,23.32 0 0 1 9.34,-2.48 4.42,4.42 0 0 1 4.4,2.49 22.83,22.83 0 0 1 9.37,-2.49 c 3.87,0 5.26,2.72 5.26,6.88 v 16.88 h -5.83 v -16.25 c 0,-1.24 -0.53,-1.86 -1.86,-1.86 a 15.43,15.43 0 0 0 -6.07,2 v 16.11 z"
       class="text" />
    <path
       style="fill:#4040b2"
       inkscape:connector-curvature="0"
       id="path6"
       d="m 36.4,110.05 v 18.93 l 16.4,-9.46 v -18.95 z"
       class="rect-dark" />
    <path
       style="fill:#5c4ee5"
       inkscape:connector-curvature="0"
       id="path8"
       d="m 18.2,100.57 16.4,9.48 v 18.93 l -16.4,-9.47 z"
       class="rect-light" />
    <path
       style="fill:#5c4ee5"
       inkscape:connector-curvature="0"
       id="path10"
       d="M 0,89.999998 V 108.94 l 16.4,9.47 V 99.469998 Z M 18.2,140.53 34.6,150 v -18.94 l -16.4,-9.47 z"
       class="rect-light" />
  </g>
</svg>
