<?xml version="1.0" encoding="UTF-8" standalone="no"?>
<svg
   xmlns:dc="http://purl.org/dc/elements/1.1/"
   xmlns:cc="http://creativecommons.org/ns#"
   xmlns:rdf="http://www.w3.org/1999/02/22-rdf-syntax-ns#"
   xmlns:svg="http://www.w3.org/2000/svg"
   xmlns="http://www.w3.org/2000/svg"
   xmlns:sodipodi="http://sodipodi.sourceforge.net/DTD/sodipodi-0.dtd"
   xmlns:inkscape="http://www.inkscape.org/namespaces/inkscape"
   width="150"
   height="150"
   viewBox="0 0 150 150"
   version="1.1"
   preserveAspectRatio="xMidYMid"
   id="svg6"
   sodipodi:docname="graphql-logo.svg"
   inkscape:version="0.92.1 r15371">
  <metadata
     id="metadata12">
    <rdf:RDF>
      <cc:Work
         rdf:about="">
        <dc:format>image/svg+xml</dc:format>
        <dc:type
           rdf:resource="http://purl.org/dc/dcmitype/StillImage" />
        <dc:title></dc:title>
      </cc:Work>
    </rdf:RDF>
  </metadata>
  <defs
     id="defs10" />
  <sodipodi:namedview
     pagecolor="#ffffff"
     bordercolor="#666666"
     borderopacity="1"
     objecttolerance="10"
     gridtolerance="10"
     guidetolerance="10"
     inkscape:pageopacity="0"
     inkscape:pageshadow="2"
     inkscape:window-width="1360"
     inkscape:window-height="704"
     id="namedview8"
     showgrid="false"
     inkscape:zoom="0.81944444"
     inkscape:cx="-11.728814"
     inkscape:cy="102.50847"
     inkscape:window-x="0"
     inkscape:window-y="27"
     inkscape:window-maximized="1"
     inkscape:current-layer="svg6" />
  <g
     id="g4"
     style="fill-rule:evenodd"
     transform="matrix(0.52147859,0,0,0.52147859,8.2507403,9.51662e-8)">
    <path
       d="m 152.57599,32.963445 59.14607,34.148998 c 1.66544,-1.764114 3.6108,-3.321735 5.81767,-4.603572 12.26673,-7.05153 27.91231,-2.864684 35.03729,9.402039 7.05153,12.266723 2.86469,27.912304 -9.40204,35.03729 -2.19001,1.25892 -4.49005,2.15964 -6.83117,2.72012 v 68.3247 c 2.31577,0.56166 4.59062,1.45667 6.75772,2.70242 12.34018,7.12499 16.52702,22.77057 9.40204,35.03729 -7.05153,12.26672 -22.77057,16.45357 -35.03729,9.40204 -2.44218,-1.40389 -4.56409,-3.15132 -6.34082,-5.14667 l -58.7853,33.9407 c 0.84036,2.53928 1.29509,5.25551 1.29509,8.07959 0,14.10306 -11.45874,25.63525 -25.63525,25.63525 -14.17651,0 -25.63525,-11.45873 -25.63525,-25.63525 0,-2.51991 0.36205,-4.95395 1.03706,-7.25303 L 44.271489,220.61545 c -1.647663,1.72948 -3.566095,3.25793 -5.737769,4.51932 -12.340177,7.05153 -27.985758,2.86468 -35.0372875,-9.40204 -7.0515295,-12.26672 -2.86468388,-27.9123 9.4020395,-35.03729 2.168868,-1.24677 4.443364,-2.14222 6.757716,-2.70379 v -68.32333 c -2.341117,-0.56048 -4.641162,-1.4612 -6.83117,-2.72012 C 0.55829519,99.896668 -3.6285504,84.177633 3.422979,71.91091 c 7.05153,-12.266723 22.770564,-16.453569 35.037287,-9.402039 2.194871,1.274865 4.131061,2.822522 5.790475,4.574805 L 103.41276,32.925466 C 102.73072,30.615453 102.36475,28.16875 102.36475,25.635248 102.36475,11.458735 113.82349,0 128,0 c 14.17651,0 25.63525,11.458735 25.63525,25.635248 0,2.547391 -0.36999,5.007029 -1.05926,7.328197 z m -6.16235,10.521426 59.28691,34.230322 c -1.83265,6.436496 -1.16004,13.573371 2.43714,19.830965 3.60891,6.277992 9.48809,10.439632 16.01285,12.061492 v 68.41019 c -0.33251,0.0816 -0.66336,0.16983 -0.99234,0.26458 L 145.72529,44.168618 c 0.23373,-0.223571 0.46322,-0.45153 0.68835,-0.683747 z M 110.29093,44.18412 32.859328,178.29566 c -0.334769,-0.0972 -0.671467,-0.18765 -1.009871,-0.27122 v -68.41679 c 6.52476,-1.62186 12.403942,-5.7835 16.012848,-12.061492 3.604294,-6.269969 4.272445,-13.4227 2.426238,-19.869142 L 109.55875,43.456343 c 0.23916,0.247459 0.48328,0.490104 0.73218,0.727777 z m 24.87182,6.075643 77.41407,134.081167 c -1.73258,1.65186 -3.25944,3.57662 -4.51258,5.75655 -1.24576,2.1671 -2.14076,4.44195 -2.70242,6.75772 H 50.639556 c -0.561576,-2.31435 -1.457023,-4.58885 -2.703797,-6.75772 -1.258088,-2.16598 -2.781834,-4.08005 -4.505729,-5.72481 L 120.85882,50.265999 c 2.26612,0.654083 4.6621,1.004497 7.14118,1.004497 2.48695,0 4.89026,-0.352641 7.16275,-1.010733 z m 11.79533,194.478227 58.90203,-34.00809 c -0.17671,-0.55498 -0.33463,-1.1158 -0.47347,-1.68143 H 50.606764 c -0.08207,0.33232 -0.170756,0.663 -0.265985,0.99182 l 59.191001,34.17495 c 4.66052,-4.8367 11.20796,-7.8421 18.46822,-7.8421 7.51838,0 14.27235,3.2229 18.95808,8.36485 z"
       id="path2"
       inkscape:connector-curvature="0"
       style="fill:#e535ab" />
  </g>
</svg>
